 <svg  version="1.0" xmlns="http://www.w3.org/2000/svg"  width="540.000000pt" height="385.000000pt" viewBox="0 0 540.000000 385.000000"  preserveAspectRatio="xMidYMid meet">  <g transform="translate(0.000000,385.000000) scale(0.100000,-0.100000)" fill="#892d06" stroke="none"> <path d="M2810 3694 c-205 -44 -387 -138 -604 -312 l-60 -48 -160 38 c-516 120 -1043 103 -1366 -45 -228 -105 -361 -281 -360 -475 1 -66 22 -159 51 -218 39 -80 158 -192 264 -245 89 -46 247 -103 315 -114 19 -3 78 -15 130 -25 52 -11 140 -22 195 -25 98 -6 188 -14 192 -18 1 -1 -5 -31 -13 -67 -20 -87 -30 -384 -16 -486 42 -309 233 -566 525 -704 306 -145 735 -121 1047 58 171 99 391 301 571 527 186 232 249 339 249 421 0 60 -10 77 -41 72 -16 -2 -47 -37 -108 -125 -158 -224 -275 -367 -421 -514 -190 -192 -323 -280 -520 -345 -73 -24 -104 -28 -226 -31 -164 -4 -253 14 -370 73 -123 61 -235 180 -292 309 -59 134 -83 328 -63 523 11 103 43 289 52 296 2 1 78 17 169 35 188 37 436 112 572 172 51 23 108 48 127 56 l34 14 -5 -44 c-7 -61 -57 -165 -115 -238 -92 -118 -270 -234 -488 -319 -76 -29 -95 -46 -95 -81 0 -26 32 -69 51 -69 4 0 47 14 95 31 341 120 576 311 667 539 28 72 47 162 47 226 0 42 1 44 93 113 323 244 467 545 386 807 -18 57 -31 77 -82 129 -107 107 -259 146 -427 109z m176 -153 c112 -51 142 -199 74 -363 -34 -82 -119 -211 -196 -296 l-57 -63 -33 61 c-71 132 -169 233 -314 320 -45 27 -86 51 -93 53 -13 5 63 83 144 147 173 137 361 193 475 141z m-1272 -256 c116 -14 274 -50 289 -64 5 -5 -24 -43 -64 -85 -160 -170 -286 -351 -392 -566 -40 -80 -78 -160 -84 -179 l-12 -34 -143 6 c-298 12 -550 96 -666 221 -62 67 -85 119 -90 207 -10 176 73 298 278 403 123 64 235 91 450 110 74 6 312 -4 434 -19z m661 -198 c102 -60 223 -184 268 -276 21 -40 37 -81 37 -91 0 -25 -21 -41 -165 -121 -69 -38 -203 -96 -310 -134 -101 -36 -341 -92 -351 -82 -7 7 3 35 54 147 89 196 184 365 290 518 73 106 64 104 177 39z"/> </g> </svg> 